<svg xmlns="http://www.w3.org/2000/svg" xmlns:xlink="http://www.w3.org/1999/xlink" width="40" zoomAndPan="magnify" viewBox="0 0 30 30.000001" height="40" preserveAspectRatio="xMidYMid meet" version="1.0"><defs><clipPath id="c3e9c37b49"><path d="M 2.40625 1.921875 L 27.808594 1.921875 L 27.808594 27.328125 L 2.40625 27.328125 Z M 2.40625 1.921875 " clip-rule="nonzero"/></clipPath></defs><g clip-path="url(#c3e9c37b49)"><path fill="#9a56f1" d="M 15 1.925781 C 8.058594 1.925781 2.410156 7.574219 2.410156 14.515625 C 2.410156 21.460938 8.058594 27.105469 15 27.105469 C 21.941406 27.105469 27.589844 21.460938 27.589844 14.515625 C 27.589844 7.574219 21.941406 1.925781 15 1.925781 Z M 15 2.769531 C 21.488281 2.769531 26.75 8.027344 26.75 14.515625 C 26.75 21.007812 21.488281 26.265625 15 26.265625 C 8.511719 26.265625 3.25 21.007812 3.25 14.515625 C 3.25 8.027344 8.511719 2.769531 15 2.769531 " fill-opacity="1" fill-rule="nonzero"/></g><path fill="#9a56f1" d="M 12.441406 11.445312 L 8.453125 6.9375 C 8.460938 6.929688 8.464844 6.925781 8.464844 6.925781 C 9.4375 6.070312 10.273438 7.15625 11.050781 7.988281 C 11.714844 8.703125 12.832031 9.878906 12.648438 10.953125 C 12.617188 11.128906 12.542969 11.289062 12.441406 11.445312 " fill-opacity="1" fill-rule="nonzero"/><path fill="#9a56f1" d="M 17.40625 17.058594 L 21.804688 21.257812 C 21.648438 21.40625 21.390625 21.648438 21.378906 21.65625 C 20.40625 22.59375 18.878906 22.78125 17.613281 22.480469 C 17.152344 22.371094 16.699219 22.214844 16.265625 22.027344 C 14.292969 21.175781 12.433594 19.660156 10.933594 18.074219 C 9.425781 16.488281 8.019531 14.546875 7.269531 12.539062 C 7.101562 12.09375 6.972656 11.632812 6.886719 11.167969 C 6.660156 9.886719 6.925781 8.367188 7.914062 7.449219 C 7.917969 7.441406 8.027344 7.335938 8.148438 7.222656 L 12.195312 11.792969 C 12.003906 12.039062 11.800781 12.289062 11.695312 12.570312 C 11.414062 13.3125 11.542969 14.058594 12.015625 14.695312 C 12.328125 15.121094 12.714844 15.574219 13.121094 16 C 13.523438 16.425781 13.953125 16.835938 14.367188 17.175781 C 14.976562 17.679688 15.710938 17.851562 16.472656 17.605469 C 16.808594 17.5 17.105469 17.257812 17.40625 17.058594 " fill-opacity="1" fill-rule="nonzero"/><path fill="#9a56f1" d="M 22.085938 20.953125 L 17.789062 16.839844 C 17.898438 16.792969 18.015625 16.753906 18.136719 16.742188 C 19.214844 16.613281 20.328125 17.792969 21.003906 18.492188 C 21.75 19.257812 22.707031 20.085938 22.085938 20.953125 " fill-opacity="1" fill-rule="nonzero"/><path fill="#9a56f1" d="M 19.617188 14.929688 C 19.394531 14.929688 19.210938 14.757812 19.199219 14.535156 C 19.144531 13.597656 18.757812 12.707031 18.113281 12.027344 C 17.46875 11.347656 16.601562 10.914062 15.667969 10.808594 C 15.4375 10.785156 15.269531 10.574219 15.296875 10.34375 C 15.324219 10.113281 15.53125 9.949219 15.761719 9.976562 C 16.890625 10.101562 17.941406 10.625 18.722656 11.449219 C 19.503906 12.273438 19.96875 13.351562 20.035156 14.484375 C 20.050781 14.714844 19.875 14.914062 19.640625 14.929688 C 19.632812 14.929688 19.625 14.929688 19.617188 14.929688 " fill-opacity="1" fill-rule="nonzero"/><path fill="#9a56f1" d="M 22.261719 15.328125 C 22.042969 15.328125 21.855469 15.15625 21.84375 14.933594 C 21.742188 13.226562 21.039062 11.605469 19.867188 10.367188 C 18.691406 9.128906 17.109375 8.339844 15.410156 8.148438 C 15.179688 8.121094 15.011719 7.914062 15.039062 7.683594 C 15.066406 7.453125 15.273438 7.285156 15.503906 7.3125 C 17.398438 7.527344 19.164062 8.40625 20.476562 9.789062 C 21.785156 11.171875 22.570312 12.980469 22.683594 14.886719 C 22.695312 15.117188 22.519531 15.316406 22.289062 15.328125 C 22.277344 15.328125 22.269531 15.328125 22.261719 15.328125 " fill-opacity="1" fill-rule="nonzero"/></svg>