<svg xmlns="http://www.w3.org/2000/svg" xmlns:xlink="http://www.w3.org/1999/xlink" width="40" zoomAndPan="magnify" viewBox="0 0 30 30.000001" height="40" preserveAspectRatio="xMidYMid meet" version="1.0"><defs><clipPath id="e195b7b05b"><path d="M 3.386719 9 L 26.613281 9 L 26.613281 27.785156 L 3.386719 27.785156 Z M 3.386719 9 " clip-rule="nonzero"/></clipPath></defs><path fill="#c830f8" d="M 20.453125 3.867188 C 19.300781 3.144531 18.28125 3.753906 17.757812 4.328125 C 17.5625 4.113281 17.292969 3.894531 16.980469 3.742188 C 16.984375 3.714844 16.988281 3.679688 16.996094 3.644531 C 17.074219 2.863281 16.714844 2.089844 16.070312 1.683594 C 14.925781 0.957031 13.90625 1.570312 13.378906 2.140625 C 12.855469 1.570312 11.832031 0.957031 10.6875 1.683594 C 10.042969 2.089844 9.679688 2.863281 9.761719 3.644531 C 9.828125 4.261719 10.089844 5.167969 10.988281 5.988281 C 12.550781 7.414062 13.214844 7.894531 13.238281 7.914062 C 13.28125 7.941406 13.328125 7.957031 13.378906 7.957031 C 13.429688 7.957031 13.476562 7.941406 13.519531 7.914062 C 13.539062 7.898438 13.851562 7.664062 14.523438 7.089844 C 14.714844 7.445312 14.976562 7.8125 15.367188 8.171875 C 16.929688 9.597656 17.589844 10.078125 17.617188 10.097656 C 17.660156 10.125 17.710938 10.140625 17.757812 10.140625 C 17.804688 10.140625 17.859375 10.125 17.894531 10.097656 C 17.925781 10.078125 18.585938 9.597656 20.152344 8.171875 C 21.046875 7.351562 21.308594 6.445312 21.375 5.828125 C 21.457031 5.046875 21.09375 4.273438 20.453125 3.867188 Z M 14.144531 5.828125 C 14.167969 6.0625 14.21875 6.339844 14.324219 6.636719 C 13.851562 7.039062 13.542969 7.292969 13.378906 7.417969 C 13.113281 7.207031 12.449219 6.671875 11.3125 5.632812 C 10.523438 4.917969 10.289062 4.132812 10.238281 3.597656 C 10.171875 2.992188 10.449219 2.398438 10.945312 2.085938 C 11.230469 1.902344 11.507812 1.835938 11.753906 1.835938 C 12.585938 1.835938 13.152344 2.613281 13.183594 2.65625 C 13.226562 2.722656 13.300781 2.757812 13.378906 2.757812 C 13.457031 2.757812 13.527344 2.722656 13.574219 2.65625 C 13.613281 2.601562 14.558594 1.289062 15.816406 2.085938 C 16.304688 2.398438 16.578125 2.980469 16.523438 3.585938 C 16.082031 3.488281 15.589844 3.535156 15.066406 3.867188 C 14.425781 4.273438 14.058594 5.046875 14.144531 5.828125 Z M 20.898438 5.78125 C 20.84375 6.316406 20.613281 7.101562 19.828125 7.816406 C 18.6875 8.855469 18.023438 9.394531 17.757812 9.601562 C 17.492188 9.394531 16.828125 8.855469 15.6875 7.816406 C 14.902344 7.101562 14.671875 6.316406 14.617188 5.78125 C 14.554688 5.175781 14.828125 4.582031 15.320312 4.269531 C 15.613281 4.085938 15.882812 4.019531 16.136719 4.019531 C 16.964844 4.019531 17.535156 4.800781 17.5625 4.84375 C 17.609375 4.90625 17.660156 4.9375 17.757812 4.941406 C 17.832031 4.941406 17.910156 4.90625 17.953125 4.839844 C 17.992188 4.785156 18.933594 3.472656 20.195312 4.269531 C 20.683594 4.582031 20.960938 5.175781 20.898438 5.78125 Z M 20.898438 5.78125 " fill-opacity="1" fill-rule="nonzero"/><g clip-path="url(#e195b7b05b)"><path fill="#c830f8" d="M 22.539062 14.574219 L 25.816406 13.46875 C 25.914062 13.433594 25.980469 13.339844 25.976562 13.230469 L 25.902344 11.65625 C 25.894531 11.570312 25.84375 11.488281 25.761719 11.449219 L 21.808594 9.628906 C 21.730469 9.589844 21.632812 9.605469 21.566406 9.65625 L 20.304688 10.617188 C 20.222656 10.679688 20.1875 10.792969 20.226562 10.894531 L 21.5 14.109375 C 20.734375 13.828125 19.902344 13.671875 19.039062 13.671875 C 18.820312 13.671875 18.601562 13.6875 18.386719 13.707031 C 17.019531 11.261719 14.402344 9.601562 11.390625 9.601562 C 6.976562 9.601562 3.386719 13.171875 3.386719 17.558594 C 3.386719 21.945312 6.976562 25.511719 11.390625 25.511719 C 12.03125 25.511719 12.683594 25.421875 13.335938 25.257812 C 14.660156 26.957031 16.71875 28.050781 19.039062 28.050781 C 23.027344 28.050781 26.273438 24.824219 26.273438 20.863281 C 26.273438 18.160156 24.761719 15.804688 22.539062 14.574219 Z M 25.429688 11.824219 L 25.480469 12.863281 L 24.507812 12.414062 L 24.390625 11.347656 Z M 25.09375 13.210938 L 23.070312 13.890625 L 24.324219 12.851562 Z M 22.15625 14.027344 L 22.144531 11.847656 L 23.847656 12.632812 Z M 23.882812 11.113281 L 24.003906 12.179688 L 22.386719 11.4375 L 23.289062 10.835938 Z M 21.738281 10.125 L 22.777344 10.601562 L 21.882812 11.203125 L 20.910156 10.753906 Z M 20.890625 11.269531 L 21.667969 11.628906 L 21.675781 13.257812 Z M 11.390625 25.035156 C 7.238281 25.035156 3.863281 21.675781 3.863281 17.558594 C 3.863281 13.433594 7.238281 10.078125 11.390625 10.078125 C 15.539062 10.078125 18.914062 13.433594 18.914062 17.558594 C 18.914062 20.207031 17.5 22.660156 15.203125 24 C 14.882812 23.613281 14.628906 23.1875 14.4375 22.726562 C 16.285156 21.652344 17.417969 19.6875 17.417969 17.558594 C 17.417969 14.25 14.714844 11.558594 11.390625 11.558594 C 8.0625 11.558594 5.359375 14.25 5.359375 17.558594 C 5.359375 20.863281 8.0625 23.550781 11.390625 23.550781 C 11.691406 23.550781 12.003906 23.523438 12.316406 23.476562 C 12.503906 23.957031 12.746094 24.414062 13.03125 24.84375 C 12.484375 24.96875 11.929688 25.035156 11.390625 25.035156 Z M 19.222656 15.925781 C 21.886719 16.027344 24.023438 18.195312 24.023438 20.863281 C 24.023438 23.589844 21.785156 25.8125 19.039062 25.8125 C 17.667969 25.8125 16.421875 25.257812 15.519531 24.363281 C 17.914062 22.921875 19.394531 20.347656 19.394531 17.558594 C 19.394531 17 19.332031 16.457031 19.222656 15.925781 Z M 14.273438 22.257812 C 14.136719 21.816406 14.066406 21.347656 14.066406 20.863281 C 14.066406 18.925781 15.191406 17.253906 16.828125 16.441406 C 16.902344 16.800781 16.941406 17.175781 16.941406 17.558594 C 16.941406 19.488281 15.921875 21.257812 14.273438 22.257812 Z M 12.144531 23.011719 C 11.886719 23.050781 11.636719 23.074219 11.390625 23.074219 C 8.328125 23.074219 5.835938 20.601562 5.835938 17.558594 C 5.835938 14.511719 8.328125 12.039062 11.390625 12.039062 C 13.265625 12.039062 14.921875 12.96875 15.925781 14.382812 C 13.5 15.542969 11.8125 18.007812 11.8125 20.863281 C 11.8125 21.609375 11.929688 22.335938 12.144531 23.011719 Z M 19.039062 27.574219 C 16.800781 27.574219 14.816406 26.480469 13.589844 24.804688 C 13.503906 24.691406 13.429688 24.578125 13.351562 24.460938 C 13.335938 24.4375 13.328125 24.417969 13.3125 24.398438 C 13.070312 24.007812 12.867188 23.59375 12.707031 23.160156 C 12.679688 23.09375 12.65625 23.027344 12.632812 22.960938 L 12.621094 22.9375 C 12.40625 22.28125 12.289062 21.585938 12.289062 20.863281 C 12.289062 18.171875 13.890625 15.859375 16.183594 14.789062 C 16.402344 15.15625 16.578125 15.550781 16.707031 15.96875 C 14.867188 16.84375 13.589844 18.703125 13.589844 20.863281 C 13.589844 21.507812 13.710938 22.125 13.914062 22.699219 L 13.917969 22.703125 C 14.164062 23.378906 14.539062 23.988281 15.015625 24.515625 L 15.101562 24.605469 C 15.597656 25.125 16.195312 25.542969 16.859375 25.835938 C 17.527344 26.125 18.261719 26.289062 19.039062 26.289062 C 22.046875 26.289062 24.5 23.855469 24.5 20.863281 C 24.5 17.890625 22.082031 15.476562 19.097656 15.445312 C 18.972656 15.003906 18.816406 14.578125 18.621094 14.167969 C 18.757812 14.160156 18.898438 14.148438 19.039062 14.148438 C 22.761719 14.148438 25.796875 17.15625 25.796875 20.863281 C 25.796875 24.5625 22.761719 27.574219 19.039062 27.574219 Z M 19.039062 27.574219 " fill-opacity="1" fill-rule="nonzero"/></g></svg>