<svg xmlns="http://www.w3.org/2000/svg" xmlns:xlink="http://www.w3.org/1999/xlink" width="40" zoomAndPan="magnify" viewBox="0 0 30 30.000001" height="40" preserveAspectRatio="xMidYMid meet" version="1.0"><defs><clipPath id="ed7d063fac"><path d="M 1.863281 1.089844 L 27.992188 1.089844 L 27.992188 27.21875 L 1.863281 27.21875 Z M 1.863281 1.089844 " clip-rule="nonzero"/></clipPath></defs><g clip-path="url(#ed7d063fac)"><path fill="#c830f8" d="M 12.566406 1.136719 C 6.628906 1.199219 1.867188 6.066406 1.933594 12.007812 C 2 17.941406 6.863281 22.703125 12.804688 22.636719 C 14.996094 22.613281 17.128906 21.921875 18.917969 20.648438 L 25.058594 26.789062 C 25.761719 27.484375 26.894531 27.476562 27.589844 26.769531 C 28.273438 26.074219 28.273438 24.953125 27.589844 24.257812 L 21.445312 18.117188 C 24.890625 13.28125 23.753906 6.566406 18.917969 3.125 C 17.0625 1.808594 14.839844 1.109375 12.566406 1.136719 Z M 12.4375 2.996094 C 17.339844 2.859375 21.425781 6.722656 21.5625 11.628906 C 21.566406 11.714844 21.566406 11.800781 21.566406 11.886719 C 21.570312 16.792969 17.59375 20.769531 12.691406 20.773438 C 7.785156 20.773438 3.804688 16.800781 3.804688 11.894531 C 3.804688 11.890625 3.804688 11.890625 3.804688 11.886719 C 3.796875 7.074219 7.625 3.132812 12.4375 2.996094 Z M 12.4375 2.996094 " fill-opacity="1" fill-rule="nonzero"/></g><path fill="#c830f8" d="M 10.289062 5.300781 C 10.773438 5.125 11.308594 5.378906 11.484375 5.863281 C 11.65625 6.347656 11.410156 6.878906 10.925781 7.058594 C 8.894531 7.796875 7.542969 9.726562 7.542969 11.886719 C 7.542969 12.402344 7.125 12.824219 6.609375 12.824219 C 6.09375 12.824219 5.675781 12.402344 5.675781 11.886719 C 5.675781 8.941406 7.519531 6.308594 10.289062 5.300781 Z M 10.289062 5.300781 " fill-opacity="1" fill-rule="nonzero"/></svg>